<svg width="304" height="301" viewBox="0 0 304 301" fill="none" xmlns="http://www.w3.org/2000/svg">
<path d="M269.802 134.279C286.275 132.04 301.762 143.667 300.684 160.256C299.165 183.633 292.199 206.479 280.166 226.901C263.005 256.026 236.538 278.526 205.029 290.774C173.521 303.023 138.807 304.306 106.48 294.419C74.1533 284.531 46.0968 264.048 26.8315 236.269C7.56614 208.491 -1.78601 175.035 0.281988 141.294C2.34998 107.552 15.7177 75.4887 38.2311 50.2709C60.7445 25.0532 91.0924 8.1494 124.385 2.28337C147.728 -1.82974 171.567 -0.348196 193.994 6.42175C209.908 11.2257 215.371 29.8054 207.501 44.4481C199.631 59.0909 181.284 63.9972 164.872 61.3513C154.985 59.7573 144.832 59.8079 134.831 61.5701C114.855 65.0897 96.6467 75.232 83.1387 90.3626C69.6307 105.493 61.61 124.731 60.3692 144.976C59.1284 165.221 64.7397 185.295 76.2989 201.962C87.8581 218.629 104.692 230.919 124.088 236.851C143.484 242.784 164.313 242.014 183.218 234.665C202.123 227.316 218.003 213.816 228.299 196.341C233.455 187.591 237.06 178.1 239.032 168.281C242.306 151.983 253.33 136.519 269.802 134.279Z" fill="#e04848"/>
<path d="M293.351 114.035C295.242 113.687 297.023 112.913 298.559 111.772C300.094 110.631 301.344 109.153 302.21 107.452C303.077 105.751 303.538 103.872 303.559 101.959C303.579 100.046 303.158 98.1496 302.328 96.4155C291.576 73.9634 277.318 53.3175 260.088 35.2488L256.937 31.9452C250.914 25.6337 240.663 26.5885 235.853 33.573C222.319 53.2776 211.423 74.6617 203.437 97.1932C200.619 105.193 205.866 114.044 214.513 115.207L219.037 115.814C243.783 119.133 268.866 118.533 293.351 114.035Z" fill="#e04848"/>
</svg>
